<svg width="24" height="24" viewBox="0 0 24 24" fill="none" xmlns="http://www.w3.org/2000/svg">
<path d="M2.99169 16.3417C3.13873 16.7126 3.17147 17.119 3.08569 17.5087L2.02069 20.7987C1.98638 20.9655 1.99525 21.1384 2.04647 21.3008C2.09769 21.4633 2.18955 21.61 2.31336 21.727C2.43716 21.844 2.5888 21.9274 2.75389 21.9693C2.91898 22.0113 3.09205 22.0104 3.25669 21.9667L6.66969 20.9687C7.03741 20.8958 7.41822 20.9276 7.76869 21.0607C9.90408 22.0579 12.3231 22.2689 14.5988 21.6564C16.8746 21.0439 18.861 19.6473 20.2074 17.7131C21.5538 15.7788 22.1738 13.4311 21.958 11.0842C21.7422 8.73738 20.7044 6.54216 19.0278 4.88589C17.3511 3.22962 15.1434 2.21873 12.7941 2.03159C10.4448 1.84445 8.10483 2.49308 6.18713 3.86303C4.26944 5.23299 2.89722 7.23624 2.31258 9.51933C1.72795 11.8024 1.96846 14.2186 2.99169 16.3417Z" stroke="black" stroke-width="2" stroke-linecap="round" stroke-linejoin="round"/>
<path d="M11.3004 16.453C9.60317 15.4492 8.34487 14.0436 7.26764 12.3885C6.75659 11.6033 6.42625 11.0853 6.1385 10.0774C5.76172 8.75759 6.30795 6.83683 7.69747 6.28767C7.88425 6.21383 8.67224 6.25029 8.8627 6.38175C9.28091 6.77017 9.48102 7.72073 9.71566 8.26027C9.83126 8.59292 9.98316 8.89215 10.0757 9.23401C10.1496 9.50753 9.96894 9.67568 9.87235 9.87474C9.74594 10.1352 8.94028 10.7573 9.05542 11.0216C9.6038 12.2805 10.6714 13.4313 11.8002 14.2072C12.2664 14.5224 12.9039 14.9099 13.4418 14.9699C13.8369 14.9513 14.719 13.4091 15.0296 13.4695C15.6838 13.597 17.0862 14.4616 17.7457 14.79C17.8532 14.8434 17.9605 14.954 17.9709 15.0585C18.015 15.502 17.8222 16.3027 17.551 16.6516C17.1259 17.1858 16.3638 17.6055 15.6952 17.7098C14.5464 17.8888 13.3978 17.3754 12.3544 16.9642C12.1389 16.8793 11.528 16.6149 11.3633 16.4745L11.3004 16.453Z" fill="black"/>
</svg>
